<svg xmlns="http://www.w3.org/2000/svg" viewBox="0 0 680 320" width="680" height="320">
  <title>ストーリーグラフ背景 - 今</title>

  <text font-family="sans-serif" font-size="12" fill="#ccc" x="28" y="72" text-anchor="middle" dominant-baseline="central">元気</text>
  <text font-family="sans-serif" font-size="12" fill="#ccc" x="28" y="238" text-anchor="middle" dominant-baseline="central">しんどい</text>

  <line x1="60" y1="40" x2="60" y2="260" stroke="#ddd" stroke-width="0.5"/>
  <line x1="60" y1="260" x2="650" y2="260" stroke="#ddd" stroke-width="0.5"/>
  <line x1="60" y1="95" x2="645" y2="95" stroke="#ddd" stroke-width="0.5" stroke-dasharray="4 4"/>
  <text font-family="sans-serif" font-size="11" fill="#ddd" x="66" y="88" text-anchor="start" dominant-baseline="central">去年と同レベル</text>

  <path d="M120,95 C170,95 210,145 260,168 C310,185 340,228 370,232 C390,234 405,233 420,232 C445,200 500,128 560,102 L620,95" fill="none" stroke="#bbb" stroke-width="3" stroke-linecap="round" stroke-linejoin="round"/>

  <line x1="620" y1="40" x2="620" y2="260" stroke="#1D9E75" stroke-width="1.5" stroke-dasharray="4 4" opacity="0.7"/>

  <circle cx="120" cy="95" r="4" fill="#ccc"/>
  <circle cx="260" cy="168" r="4" fill="#ccc"/>
  <circle cx="370" cy="232" r="4" fill="#ccc"/>
  <circle cx="420" cy="232" r="4" fill="#ccc"/>
  <circle cx="560" cy="102" r="4" fill="#ccc"/>
  <circle cx="620" cy="95" r="8" fill="white"/>
  <circle cx="620" cy="95" r="6" fill="#1D9E75"/>
  <line x1="120" y1="257" x2="120" y2="263" stroke="#ddd" stroke-width="0.5"/>
  <line x1="260" y1="257" x2="260" y2="263" stroke="#ddd" stroke-width="0.5"/>
  <line x1="370" y1="257" x2="370" y2="263" stroke="#ddd" stroke-width="0.5"/>
  <line x1="420" y1="257" x2="420" y2="263" stroke="#ddd" stroke-width="0.5"/>
  <line x1="560" y1="257" x2="560" y2="263" stroke="#ddd" stroke-width="0.5"/>
  <line x1="620" y1="257" x2="620" y2="263" stroke="#ddd" stroke-width="0.5"/>
  <text font-family="sans-serif" font-size="12" fill="#ccc" x="120" y="274" text-anchor="middle">きのこ2025</text>
  <text font-family="sans-serif" font-size="12" fill="#ccc" x="120" y="287" text-anchor="middle">登壇</text>
  <text font-family="sans-serif" font-size="12" fill="#ccc" x="260" y="274" text-anchor="middle">組織変化</text>
  <text font-family="sans-serif" font-size="12" fill="#ccc" x="370" y="274" text-anchor="middle">年末年始</text>
  <text font-family="sans-serif" font-size="12" fill="#ccc" x="370" y="287" text-anchor="middle">直前（底）</text>
  <text font-family="sans-serif" font-size="12" fill="#ccc" x="420" y="274" text-anchor="middle">本との</text>
  <text font-family="sans-serif" font-size="12" fill="#ccc" x="420" y="287" text-anchor="middle">出会い</text>
  <text font-family="sans-serif" font-size="12" fill="#ccc" x="560" y="274" text-anchor="middle">チーム移動</text>
  <text font-family="sans-serif" font-size="12" fill="#ccc" x="620" y="274" text-anchor="middle">今</text>
</svg>